# xmcd
#
# Track frame offsets:
#   150
#   15322
#   28673
#   60320
#   75867
#   92307
#   109411
#   125173
#   142826
#   166402
#   193351
#   213639
#   228067
#   243709
#   257241
#   276691
#   288802
#   304664
#
# Disc length: 4294 seconds
#
# Revision: 0
# Processed by: cddbd v1.5.2PL0 Copyright (c) Steve Scherf et al.
# Submitted via: uFREEDB ActiveX Control 1.5
#
DISCID=f910c412
DTITLE=Marcelinho de Lima e Camargo - Marcelinho de Lima e Camargo
DYEAR=1900
DGENRE=Country
TTITLE0=Marcelinho de Lima e Camargo
TTITLE1=Marcelinho de Lima e Camargo
TTITLE2=Marcelinho de Lima e Camargo
TTITLE3=Marcelinho de Lima e Camargo
TTITLE4=Marcelinho de Lima e Camargo
TTITLE5=Marcelinho de Lima e Camargo
TTITLE6=Marcelinho de Lima e Camargo
TTITLE7=Marcelinho de Lima e Camargo
TTITLE8=Marcelinho de Lima e Camargo
TTITLE9=Marcelinho de Lima e Camargo
TTITLE10=Marcelinho de Lima e Camargo
TTITLE11=Marcelinho de Lima e Camargo
TTITLE12=Marcelinho de Lima e Camargo
TTITLE13=Marcelinho de Lima e Camargo
TTITLE14=Marcelinho de Lima e Camargo
TTITLE15=Marcelinho de Lima e Camargo
TTITLE16=Marcelinho de Lima e Camargo
TTITLE17=Marcelinho de Lima e Camargo
EXTD=
EXTT0=
EXTT1=
EXTT2=
EXTT3=
EXTT4=
EXTT5=
EXTT6=
EXTT7=
EXTT8=
EXTT9=
EXTT10=
EXTT11=
EXTT12=
EXTT13=
EXTT14=
EXTT15=
EXTT16=
EXTT17=
PLAYORDER=
